<svg width="50" height="50" viewBox="0 0 50 50" fill="none" xmlns="http://www.w3.org/2000/svg">
<path d="M16 37.5L25 28.5L34 37.5L37.5 34L28.5 25L37.5 16L34 12.5L25 21.5L16 12.5L12.5 16L21.5 25L12.5 34L16 37.5ZM25 50C21.5417 50 18.2917 49.3433 15.25 48.03C12.2083 46.7167 9.5625 44.9358 7.3125 42.6875C5.0625 40.4392 3.28167 37.7933 1.97 34.75C0.658336 31.7067 0.00166983 28.4567 3.16455e-06 25C-0.0016635 21.5433 0.655003 18.2933 1.97 15.25C3.285 12.2067 5.06583 9.56083 7.3125 7.3125C9.55916 5.06417 12.205 3.28333 15.25 1.97C18.295 0.656667 21.545 0 25 0C28.455 0 31.705 0.656667 34.75 1.97C37.795 3.28333 40.4408 5.06417 42.6875 7.3125C44.9341 9.56083 46.7158 12.2067 48.0325 15.25C49.3491 18.2933 50.005 21.5433 50 25C49.995 28.4567 49.3383 31.7067 48.03 34.75C46.7216 37.7933 44.9408 40.4392 42.6875 42.6875C40.4341 44.9358 37.7883 46.7175 34.75 48.0325C31.7116 49.3475 28.4617 50.0033 25 50Z" fill="#F23030"/>
</svg>
