<svg width="60" height="60" viewBox="0 0 60 60" fill="none" xmlns="http://www.w3.org/2000/svg">
<path d="M52.2222 7.5H45.1167L41.6667 1.66875C41.3618 1.15461 40.9486 0.733231 40.464 0.442092C39.9794 0.150954 39.4383 -0.000912012 38.8889 4.12044e-06H21.1111C20.5617 -0.000912012 20.0206 0.150954 19.536 0.442092C19.0514 0.733231 18.6382 1.15461 18.3333 1.66875L14.8806 7.5H7.77778C5.71498 7.5 3.73667 8.42188 2.27806 10.0628C0.819442 11.7038 0 13.9294 0 16.25V51.25C0 53.5706 0.819442 55.7962 2.27806 57.4372C3.73667 59.0781 5.71498 60 7.77778 60H52.2222C53.2436 60 54.255 59.7737 55.1986 59.3339C56.1423 58.8942 56.9997 58.2497 57.7219 57.4372C58.4442 56.6247 59.0171 55.6601 59.408 54.5985C59.7988 53.5369 60 52.3991 60 51.25V16.25C60 15.1009 59.7988 13.9631 59.408 12.9015C59.0171 11.8399 58.4442 10.8753 57.7219 10.0628C56.9997 9.25031 56.1423 8.60579 55.1986 8.16606C54.255 7.72633 53.2436 7.5 52.2222 7.5ZM53.3333 51.25C53.3333 51.5815 53.2163 51.8995 53.0079 52.1339C52.7995 52.3683 52.5169 52.5 52.2222 52.5H7.77778C7.48309 52.5 7.20048 52.3683 6.9921 52.1339C6.78373 51.8995 6.66667 51.5815 6.66667 51.25V16.25C6.66667 15.9185 6.78373 15.6005 6.9921 15.3661C7.20048 15.1317 7.48309 15 7.77778 15H16.6667C17.2161 15.0009 17.7571 14.8491 18.2418 14.5579C18.7264 14.2668 19.1395 13.8454 19.4444 13.3313L22.8944 7.5H37.1028L40.5556 13.3313C40.8605 13.8454 41.2736 14.2668 41.7582 14.5579C42.2429 14.8491 42.7839 15.0009 43.3333 15H52.2222C52.5169 15 52.7995 15.1317 53.0079 15.3661C53.2163 15.6005 53.3333 15.9185 53.3333 16.25V51.25ZM30 17.5C27.3629 17.5 24.7851 18.3797 22.5924 20.028C20.3997 21.6762 18.6908 24.0189 17.6816 26.7598C16.6724 29.5006 16.4084 32.5166 16.9229 35.4264C17.4373 38.3361 18.7072 41.0088 20.5719 43.1066C22.4366 45.2044 24.8124 46.633 27.3988 47.2118C29.9852 47.7906 32.6661 47.4935 35.1024 46.3582C37.5388 45.2229 39.6212 43.3003 41.0863 40.8336C42.5513 38.3668 43.3333 35.4667 43.3333 32.5C43.3297 28.523 41.9237 24.7101 39.424 21.898C36.9243 19.0858 33.5351 17.5041 30 17.5ZM30 40C28.6815 40 27.3925 39.5601 26.2962 38.736C25.1999 37.9119 24.3454 36.7406 23.8408 35.3701C23.3362 33.9997 23.2042 32.4917 23.4614 31.0368C23.7187 29.582 24.3536 28.2456 25.286 27.1967C26.2183 26.1478 27.4062 25.4335 28.6994 25.1441C29.9926 24.8547 31.333 25.0032 32.5512 25.5709C33.7694 26.1386 34.8106 27.0999 35.5431 28.3332C36.2757 29.5666 36.6667 31.0166 36.6667 32.5C36.6667 34.4891 35.9643 36.3968 34.714 37.8033C33.4638 39.2098 31.7681 40 30 40Z" fill="#545454"/>
</svg>
