<svg width="123" height="121" viewBox="0 0 123 121" fill="none" xmlns="http://www.w3.org/2000/svg">
<g clip-path="url(#clip0_238_4832)">
<path d="M1.01604 10.2512C0.366226 9.32315 0.0267988 8.20779 0.0224235 7.09111C0.0100268 3.92721 2.63255 1.35785 5.88734 1.3451L32.0453 1.24261C34.7257 1.2321 37.244 2.59483 38.6169 4.82284L55.1145 31.3029C43.5847 32.7672 33.2904 38.042 25.6385 45.819L1.01604 10.2512ZM121.563 9.77885L97.2439 45.5384C89.5313 37.8216 79.196 32.6276 67.655 31.2537L83.9447 4.64523C85.324 2.40645 87.8076 1.02412 90.488 1.01362L116.646 0.911126C119.901 0.898373 122.543 3.4471 122.556 6.61101C122.56 7.72768 122.229 8.84567 121.587 9.77876L121.563 9.77885ZM19.4521 79.4603C19.4096 68.6011 23.8065 58.1692 31.6756 50.4597C39.5447 42.7501 50.2414 38.3943 61.4125 38.3506C72.5836 38.3068 83.3141 42.5786 91.2434 50.2263C99.1727 57.8739 103.651 68.271 103.694 79.1302C103.736 89.9894 99.3394 100.421 91.4703 108.131C83.6012 115.84 72.9045 120.196 61.7333 120.24C50.5622 120.284 39.8317 116.012 31.9024 108.364C23.9732 100.717 19.4946 90.3195 19.4521 79.4603ZM63.4967 57.2098C62.6766 55.5845 60.3074 55.5938 59.4761 57.2256L54.1567 67.8084C53.8242 68.4611 53.2037 68.9056 52.486 69.0015L40.4787 70.7468C38.6369 71.0099 37.9275 73.1996 39.2488 74.4739L47.9685 82.6753C48.497 83.1851 48.7391 83.8821 48.6222 84.6037L46.6095 96.2205C46.3053 97.9898 48.2253 99.3549 49.8733 98.5109L60.5735 92.9786C61.2184 92.6504 62.0082 92.6473 62.6556 92.9705L73.3988 98.4188C75.0534 99.2498 76.9627 97.893 76.6446 96.1029L74.5409 84.5022C74.4185 83.8047 74.655 83.0826 75.1795 82.5687L83.8346 74.2992C85.1699 73.0377 84.4195 70.8538 82.5756 70.5819L70.5789 68.9306C69.8605 68.8403 69.2125 68.3776 68.8989 67.7507L63.4967 57.2098Z" fill="#15DEFE"/>
</g>
<defs>
<clipPath id="clip0_238_4832">
<rect width="122.534" height="119.113" fill="white" transform="translate(0 1.36816) rotate(-0.224493)"/>
</clipPath>
</defs>
</svg>
