<svg width="181" height="180" viewBox="0 0 181 180" fill="none" xmlns="http://www.w3.org/2000/svg">
<rect width="181" height="180" fill="#D9D9D9"/>
<path d="M167.127 153.994C155.862 134.531 138.502 120.574 118.242 113.958C128.263 107.996 136.049 98.9109 140.404 88.0984C144.759 77.2859 145.442 65.3436 142.348 54.1056C139.255 42.8676 132.555 32.9551 123.279 25.8906C114.003 18.8261 102.663 15 91 15C79.3374 15 67.9972 18.8261 58.721 25.8906C49.4447 32.9551 42.7453 42.8676 39.6516 54.1056C36.5579 65.3436 37.2409 77.2859 41.5958 88.0984C45.9507 98.9109 53.7366 107.996 63.7579 113.958C43.4983 120.567 26.1383 134.523 14.8731 153.994C14.46 154.668 14.186 155.417 14.0672 156.197C13.9485 156.978 13.9874 157.775 14.1817 158.54C14.376 159.306 14.7217 160.025 15.1985 160.654C15.6753 161.284 16.2734 161.812 16.9577 162.207C17.6419 162.602 18.3984 162.856 19.1825 162.954C19.9665 163.052 20.7623 162.992 21.5229 162.778C22.2834 162.564 22.9933 162.2 23.6107 161.707C24.2281 161.214 24.7404 160.602 25.1175 159.908C39.0529 135.839 63.684 121.469 91 121.469C118.316 121.469 142.947 135.839 156.882 159.908C157.26 160.602 157.772 161.214 158.389 161.707C159.007 162.2 159.717 162.564 160.477 162.778C161.238 162.992 162.033 163.052 162.818 162.954C163.602 162.856 164.358 162.602 165.042 162.207C165.727 161.812 166.325 161.284 166.802 160.654C167.278 160.025 167.624 159.306 167.818 158.54C168.013 157.775 168.052 156.978 167.933 156.197C167.814 155.417 167.54 154.668 167.127 153.994ZM49.5784 68.2443C49.5784 60.0569 52.0078 52.0532 56.5592 45.2456C61.1107 38.438 67.5799 33.1321 75.1487 29.9988C82.7175 26.8656 91.046 26.0458 99.081 27.6431C107.116 29.2404 114.497 33.1831 120.289 38.9725C126.082 44.7619 130.027 52.1381 131.626 60.1683C133.224 68.1984 132.404 76.5219 129.269 84.0861C126.133 91.6504 120.824 98.1156 114.013 102.664C107.201 107.213 99.1924 109.641 91 109.641C80.0179 109.629 69.489 105.264 61.7235 97.5032C53.958 89.7424 49.5902 79.2198 49.5784 68.2443Z" fill="#545454"/>
</svg>
