<svg width="58" height="58" viewBox="0 0 58 58" fill="none" xmlns="http://www.w3.org/2000/svg">
<path d="M29 56C43.9117 56 56 43.9117 56 29C56 14.0883 43.9117 2 29 2C14.0883 2 2 14.0883 2 29C2 43.9117 14.0883 56 29 56Z" stroke="#F2D857" stroke-width="4"/>
<path d="M22.4867 40L21.2987 37.048L29.0027 28.372C29.4107 27.94 29.8307 27.448 30.2627 26.896C30.7187 26.32 31.1507 25.732 31.5587 25.132C31.9667 24.532 32.2907 23.944 32.5307 23.368C32.7947 22.768 32.9267 22.204 32.9267 21.676C32.9267 20.908 32.7707 20.26 32.4587 19.732C32.1707 19.18 31.7387 18.76 31.1627 18.472C30.6107 18.184 29.9387 18.04 29.1467 18.04C28.4507 18.04 27.7667 18.244 27.0947 18.652C26.4227 19.06 25.8107 19.636 25.2587 20.38C24.7067 21.124 24.2747 21.988 23.9627 22.972L20.9747 21.1C21.3827 19.708 21.9947 18.52 22.8107 17.536C23.6507 16.528 24.6467 15.76 25.7987 15.232C26.9747 14.704 28.2467 14.44 29.6147 14.44C31.0307 14.44 32.2907 14.74 33.3947 15.34C34.4987 15.916 35.3627 16.732 35.9867 17.788C36.6107 18.82 36.9227 20.02 36.9227 21.388C36.9227 21.94 36.8627 22.504 36.7427 23.08C36.6227 23.656 36.4307 24.256 36.1667 24.88C35.9027 25.48 35.5667 26.116 35.1587 26.788C34.7507 27.436 34.2587 28.12 33.6827 28.84C33.1307 29.56 32.4947 30.316 31.7747 31.108L26.0507 37.336L25.3307 36.256H37.7147V40H22.4867Z" fill="#F2D857"/>
</svg>
