<svg width="58" height="58" viewBox="0 0 58 58" fill="none" xmlns="http://www.w3.org/2000/svg">
<path d="M29 56C43.9117 56 56 43.9117 56 29C56 14.0883 43.9117 2 29 2C14.0883 2 2 14.0883 2 29C2 43.9117 14.0883 56 29 56Z" stroke="#F2D857" stroke-width="4"/>
<path d="M28.5087 42.36C26.7327 42.36 25.1847 41.952 23.8647 41.136C22.5687 40.32 21.3447 38.952 20.1927 37.032L23.2167 35.124C23.8167 36.012 24.4047 36.744 24.9807 37.32C25.5807 37.872 26.1927 38.28 26.8167 38.544C27.4407 38.808 28.1007 38.94 28.7967 38.94C29.6367 38.94 30.4167 38.736 31.1367 38.328C31.8567 37.896 32.4327 37.308 32.8647 36.564C33.2967 35.82 33.5127 34.98 33.5127 34.044C33.5127 33.108 33.3447 32.316 33.0087 31.668C32.6727 30.996 32.1807 30.492 31.5327 30.156C30.8847 29.796 30.1167 29.616 29.2287 29.616C28.8207 29.616 28.3887 29.664 27.9327 29.76C27.5007 29.832 27.0327 29.952 26.5287 30.12C26.0247 30.264 25.4727 30.456 24.8727 30.696L23.7927 27.852L31.5687 19.284L32.3247 20.4H21.5967V16.8H36.0327L36.7527 18.24L28.5087 27.384L27.6087 26.448C27.8007 26.352 28.1127 26.268 28.5447 26.196C29.0007 26.1 29.3727 26.052 29.6607 26.052C30.7167 26.052 31.7007 26.256 32.6127 26.664C33.5487 27.048 34.3527 27.6 35.0247 28.32C35.7207 29.016 36.2607 29.844 36.6447 30.804C37.0527 31.74 37.2567 32.748 37.2567 33.828C37.2567 35.46 36.8607 36.924 36.0687 38.22C35.3007 39.492 34.2567 40.5 32.9367 41.244C31.6167 41.988 30.1407 42.36 28.5087 42.36Z" fill="#F2D857"/>
</svg>
