<svg width="58" height="58" viewBox="0 0 58 58" fill="none" xmlns="http://www.w3.org/2000/svg">
<path d="M29 56C43.9117 56 56 43.9117 56 29C56 14.0883 43.9117 2 29 2C14.0883 2 2 14.0883 2 29C2 43.9117 14.0883 56 29 56Z" stroke="#F2D857" stroke-width="4"/>
<path d="M27.5215 42.252C25.8655 42.252 24.3655 41.88 23.0215 41.136C21.6775 40.368 20.5615 39.276 19.6735 37.86L21.8335 35.448C22.9615 36.696 23.9455 37.548 24.7855 38.004C25.6255 38.46 26.5375 38.688 27.5215 38.688C28.5055 38.688 29.3935 38.472 30.1855 38.04C30.9775 37.608 31.6015 37.02 32.0575 36.276C32.5375 35.532 32.7775 34.704 32.7775 33.792C32.7775 32.832 32.5495 31.98 32.0935 31.236C31.6615 30.468 31.0735 29.868 30.3295 29.436C29.5855 28.98 28.7455 28.752 27.8095 28.752C27.3535 28.752 26.9215 28.788 26.5135 28.86C26.1055 28.908 25.6135 29.04 25.0375 29.256C24.4615 29.472 23.7055 29.808 22.7695 30.264L20.7175 27.492L22.1935 16.8H35.8015V20.4H24.6415L25.3975 19.716L24.2095 27.708L23.3095 26.664C23.5495 26.424 23.9575 26.196 24.5335 25.98C25.1095 25.74 25.7455 25.548 26.4415 25.404C27.1615 25.236 27.8455 25.152 28.4935 25.152C30.0295 25.152 31.3975 25.512 32.5975 26.232C33.8215 26.928 34.7815 27.9 35.4775 29.148C36.1975 30.396 36.5575 31.824 36.5575 33.432C36.5575 35.088 36.1615 36.588 35.3695 37.932C34.5775 39.252 33.4975 40.308 32.1295 41.1C30.7615 41.868 29.2255 42.252 27.5215 42.252Z" fill="#F2D857"/>
</svg>
