<svg width="260" height="63" viewBox="0 0 260 63" fill="none" xmlns="http://www.w3.org/2000/svg">
<path d="M37.107 55.04L20.147 32.832L25.843 29.056L42.611 51.072L37.107 55.04ZM22.899 48.64C19.7417 48.64 16.819 48.064 14.131 46.912C11.4857 45.76 9.16033 44.16 7.155 42.112C5.19233 40.0213 3.65633 37.5893 2.547 34.816C1.48033 32 0.947 28.928 0.947 25.6C0.947 22.272 1.48033 19.2213 2.547 16.448C3.65633 13.632 5.19233 11.2 7.155 9.152C9.16033 7.06133 11.4857 5.44 14.131 4.288C16.819 3.136 19.7417 2.56 22.899 2.56C26.0563 2.56 28.9577 3.136 31.603 4.288C34.291 5.44 36.6163 7.06133 38.579 9.152C40.5843 11.2427 42.1203 13.696 43.187 16.512C44.2963 19.2853 44.851 22.3147 44.851 25.6C44.851 28.8853 44.2963 31.936 43.187 34.752C42.1203 37.5253 40.5843 39.9573 38.579 42.048C36.6163 44.1387 34.291 45.76 31.603 46.912C28.9577 48.064 26.0563 48.64 22.899 48.64ZM22.899 41.92C25.075 41.92 27.059 41.5147 28.851 40.704C30.6857 39.8933 32.2643 38.7627 33.587 37.312C34.9097 35.8187 35.9337 34.0907 36.659 32.128C37.427 30.1227 37.811 27.9467 37.811 25.6C37.811 23.2533 37.427 21.0987 36.659 19.136C35.9337 17.1307 34.9097 15.4027 33.587 13.952C32.2643 12.4587 30.6857 11.3067 28.851 10.496C27.059 9.68533 25.075 9.28 22.899 9.28C20.723 9.28 18.7177 9.68533 16.883 10.496C15.091 11.3067 13.5123 12.4373 12.147 13.888C10.8243 15.3387 9.80033 17.0667 9.075 19.072C8.34967 21.0347 7.987 23.2107 7.987 25.6C7.987 27.9467 8.34967 30.1227 9.075 32.128C9.80033 34.1333 10.8243 35.8613 12.147 37.312C13.5123 38.7627 15.091 39.8933 16.883 40.704C18.7177 41.5147 20.723 41.92 22.899 41.92ZM64.3215 48.64C61.9322 48.64 59.8415 48.0853 58.0495 46.976C56.3002 45.8667 54.9348 44.3093 53.9535 42.304C53.0148 40.2987 52.5455 37.9093 52.5455 35.136V14.4H59.1375V33.344C59.1375 35.3067 59.4362 37.0133 60.0335 38.464C60.6735 39.872 61.5695 40.96 62.7215 41.728C63.9162 42.496 65.3455 42.88 67.0095 42.88C68.2468 42.88 69.3775 42.688 70.4015 42.304C71.4255 41.8773 72.3002 41.3013 73.0255 40.576C73.7935 39.8507 74.3908 38.976 74.8175 37.952C75.2442 36.928 75.4575 35.8187 75.4575 34.624V14.4H82.0495V48H75.4575V40.96L76.6095 40.192C76.0975 41.7707 75.2228 43.2 73.9855 44.48C72.7908 45.76 71.3615 46.784 69.6975 47.552C68.0335 48.2773 66.2415 48.64 64.3215 48.64ZM104.224 48.64C101.45 48.64 98.9115 47.872 96.6075 46.336C94.3462 44.8 92.5328 42.7093 91.1675 40.064C89.8022 37.4187 89.1195 34.432 89.1195 31.104C89.1195 27.7333 89.8022 24.7467 91.1675 22.144C92.5755 19.4987 94.4528 17.4293 96.7995 15.936C99.1888 14.4427 101.856 13.696 104.8 13.696C106.549 13.696 108.149 13.952 109.6 14.464C111.05 14.976 112.309 15.7013 113.376 16.64C114.485 17.536 115.381 18.5813 116.064 19.776C116.789 20.9707 117.237 22.2507 117.408 23.616L115.936 23.104V14.4H122.592V48H115.936V40L117.472 39.552C117.216 40.704 116.682 41.8347 115.872 42.944C115.104 44.0107 114.101 44.9707 112.864 45.824C111.669 46.6773 110.325 47.36 108.832 47.872C107.381 48.384 105.845 48.64 104.224 48.64ZM105.952 42.56C107.957 42.56 109.728 42.0693 111.264 41.088C112.8 40.1067 113.994 38.7627 114.848 37.056C115.744 35.3067 116.192 33.3227 116.192 31.104C116.192 28.928 115.744 26.9867 114.848 25.28C113.994 23.5733 112.8 22.2293 111.264 21.248C109.728 20.2667 107.957 19.776 105.952 19.776C103.989 19.776 102.24 20.2667 100.704 21.248C99.2102 22.2293 98.0155 23.5733 97.1195 25.28C96.2662 26.9867 95.8395 28.928 95.8395 31.104C95.8395 33.3227 96.2662 35.3067 97.1195 37.056C98.0155 38.7627 99.2102 40.1067 100.704 41.088C102.24 42.0693 103.989 42.56 105.952 42.56ZM146.068 48.64C142.953 48.64 140.158 47.872 137.684 46.336C135.252 44.8 133.31 42.7093 131.86 40.064C130.452 37.4187 129.748 34.4533 129.748 31.168C129.748 27.8827 130.452 24.9173 131.86 22.272C133.31 19.6267 135.252 17.536 137.684 16C140.158 14.464 142.953 13.696 146.068 13.696C149.054 13.696 151.764 14.3147 154.196 15.552C156.67 16.7467 158.548 18.3893 159.828 20.48L156.18 24.96C155.497 23.9787 154.622 23.0827 153.556 22.272C152.489 21.4613 151.358 20.8213 150.164 20.352C148.969 19.8827 147.817 19.648 146.708 19.648C144.66 19.648 142.825 20.16 141.204 21.184C139.625 22.1653 138.366 23.5307 137.428 25.28C136.489 27.0293 136.02 28.992 136.02 31.168C136.02 33.344 136.51 35.3067 137.492 37.056C138.473 38.7627 139.774 40.128 141.396 41.152C143.017 42.176 144.809 42.688 146.772 42.688C147.924 42.688 149.033 42.496 150.1 42.112C151.209 41.728 152.276 41.152 153.3 40.384C154.324 39.616 155.284 38.6773 156.18 37.568L159.828 42.048C158.462 43.968 156.5 45.5467 153.94 46.784C151.422 48.0213 148.798 48.64 146.068 48.64ZM172.062 37.504L171.742 30.336L187.806 14.4H196.701L172.062 37.504ZM166.046 48V0.639999H172.638V48H166.046ZM188.702 48L176.03 33.216L180.702 28.928L197.15 48H188.702ZM206.069 48V10.624C206.069 8.704 206.495 6.99733 207.349 5.504C208.202 4.01066 209.375 2.83733 210.869 1.984C212.362 1.13066 214.09 0.703999 216.053 0.703999C217.418 0.703999 218.698 0.959998 219.893 1.472C221.087 1.984 222.047 2.66666 222.773 3.52L220.533 8.576C219.978 8.064 219.359 7.65866 218.677 7.36C218.037 7.01867 217.418 6.848 216.821 6.848C215.925 6.848 215.157 6.99733 214.517 7.296C213.919 7.552 213.471 7.97866 213.173 8.576C212.874 9.13066 212.725 9.81333 212.725 10.624V48H209.397C208.842 48 208.287 48 207.733 48C207.178 48 206.623 48 206.069 48ZM200.693 21.056V14.976H220.661V21.056H200.693ZM233.178 62.72L239.962 47.04L240.026 52.288L223.258 14.4H230.938L241.434 39.104C241.647 39.5307 241.903 40.192 242.202 41.088C242.5 41.9413 242.756 42.7947 242.97 43.648L241.306 44.032C241.647 43.136 241.967 42.24 242.266 41.344C242.607 40.448 242.927 39.552 243.226 38.656L251.994 14.4H259.802L245.978 48L240.282 62.72H233.178Z" fill="white" fill-opacity="0.72"/>
</svg>
